<mxfile host="app.diagrams.net" agent="Mozilla/5.0 (Windows NT 10.0; Win64; x64) AppleWebKit/537.36 (KHTML, like Gecko) Chrome/132.0.0.0 Safari/537.36" version="26.0.10">
  <diagram name="Page-1" id="DXRVm20zCoAOrl-fi9P4">
    <mxGraphModel dx="1050" dy="522" grid="1" gridSize="10" guides="1" tooltips="1" connect="1" arrows="1" fold="1" page="1" pageScale="1" pageWidth="850" pageHeight="1100" math="0" shadow="0">
      <root>
        <mxCell id="0" />
        <mxCell id="1" parent="0" />
        <mxCell id="Tyw8XItbseaXz_-Dn32P-1" value="" style="swimlane;startSize=0;" vertex="1" parent="1">
          <mxGeometry x="320" y="100" width="200" height="360" as="geometry" />
        </mxCell>
        <mxCell id="Tyw8XItbseaXz_-Dn32P-5" value="" style="swimlane;startSize=0;" vertex="1" parent="Tyw8XItbseaXz_-Dn32P-1">
          <mxGeometry width="200" height="70" as="geometry" />
        </mxCell>
        <mxCell id="Tyw8XItbseaXz_-Dn32P-9" value="try again" style="rounded=0;whiteSpace=wrap;html=1;" vertex="1" parent="Tyw8XItbseaXz_-Dn32P-1">
          <mxGeometry x="15" y="320" width="85" height="40" as="geometry" />
        </mxCell>
        <mxCell id="Tyw8XItbseaXz_-Dn32P-10" value="QUIT" style="rounded=0;whiteSpace=wrap;html=1;" vertex="1" parent="Tyw8XItbseaXz_-Dn32P-1">
          <mxGeometry x="105" y="320" width="85" height="40" as="geometry" />
        </mxCell>
        <mxCell id="Tyw8XItbseaXz_-Dn32P-3" value="" style="swimlane;startSize=0;" vertex="1" parent="1">
          <mxGeometry x="320" y="230" width="200" height="190" as="geometry" />
        </mxCell>
        <mxCell id="Tyw8XItbseaXz_-Dn32P-11" value="number" style="ellipse;whiteSpace=wrap;html=1;aspect=fixed;" vertex="1" parent="Tyw8XItbseaXz_-Dn32P-3">
          <mxGeometry x="60" y="50" width="80" height="80" as="geometry" />
        </mxCell>
        <mxCell id="Tyw8XItbseaXz_-Dn32P-12" value="F" style="ellipse;whiteSpace=wrap;html=1;aspect=fixed;" vertex="1" parent="Tyw8XItbseaXz_-Dn32P-3">
          <mxGeometry x="10" y="75" width="30" height="30" as="geometry" />
        </mxCell>
        <mxCell id="Tyw8XItbseaXz_-Dn32P-15" value="N" style="ellipse;whiteSpace=wrap;html=1;aspect=fixed;" vertex="1" parent="Tyw8XItbseaXz_-Dn32P-3">
          <mxGeometry x="85" y="10" width="30" height="30" as="geometry" />
        </mxCell>
        <mxCell id="Tyw8XItbseaXz_-Dn32P-14" value="B" style="ellipse;whiteSpace=wrap;html=1;aspect=fixed;" vertex="1" parent="Tyw8XItbseaXz_-Dn32P-3">
          <mxGeometry x="150" y="75" width="30" height="30" as="geometry" />
        </mxCell>
        <mxCell id="Tyw8XItbseaXz_-Dn32P-13" value="FB" style="ellipse;whiteSpace=wrap;html=1;aspect=fixed;" vertex="1" parent="Tyw8XItbseaXz_-Dn32P-3">
          <mxGeometry x="85" y="150" width="30" height="30" as="geometry" />
        </mxCell>
        <mxCell id="Tyw8XItbseaXz_-Dn32P-4" value="" style="swimlane;startSize=0;" vertex="1" parent="1">
          <mxGeometry x="320" y="170" width="200" height="60" as="geometry" />
        </mxCell>
        <mxCell id="Tyw8XItbseaXz_-Dn32P-6" value="" style="swimlane;startSize=0;" vertex="1" parent="1">
          <mxGeometry x="320" y="170" width="200" height="60" as="geometry" />
        </mxCell>
        <mxCell id="Tyw8XItbseaXz_-Dn32P-16" value="Stats" style="text;html=1;align=center;verticalAlign=middle;resizable=0;points=[];autosize=1;strokeColor=none;fillColor=none;" vertex="1" parent="Tyw8XItbseaXz_-Dn32P-6">
          <mxGeometry x="75" y="15" width="50" height="30" as="geometry" />
        </mxCell>
        <mxCell id="Tyw8XItbseaXz_-Dn32P-17" style="edgeStyle=orthogonalEdgeStyle;rounded=0;orthogonalLoop=1;jettySize=auto;html=1;" edge="1" parent="Tyw8XItbseaXz_-Dn32P-6" source="Tyw8XItbseaXz_-Dn32P-16" target="Tyw8XItbseaXz_-Dn32P-6">
          <mxGeometry relative="1" as="geometry" />
        </mxCell>
        <mxCell id="Tyw8XItbseaXz_-Dn32P-7" style="edgeStyle=orthogonalEdgeStyle;rounded=0;orthogonalLoop=1;jettySize=auto;html=1;exitX=0.5;exitY=1;exitDx=0;exitDy=0;" edge="1" parent="1" source="Tyw8XItbseaXz_-Dn32P-4" target="Tyw8XItbseaXz_-Dn32P-4">
          <mxGeometry relative="1" as="geometry" />
        </mxCell>
        <mxCell id="Tyw8XItbseaXz_-Dn32P-8" style="edgeStyle=orthogonalEdgeStyle;rounded=0;orthogonalLoop=1;jettySize=auto;html=1;" edge="1" parent="1" source="Tyw8XItbseaXz_-Dn32P-4" target="Tyw8XItbseaXz_-Dn32P-4">
          <mxGeometry relative="1" as="geometry" />
        </mxCell>
        <mxCell id="Tyw8XItbseaXz_-Dn32P-18" value="ADS FOR MONEY" style="text;html=1;align=center;verticalAlign=middle;resizable=0;points=[];autosize=1;strokeColor=none;fillColor=none;" vertex="1" parent="1">
          <mxGeometry x="350" y="118" width="120" height="30" as="geometry" />
        </mxCell>
      </root>
    </mxGraphModel>
  </diagram>
</mxfile>
